<?xml version="1.0" encoding="utf-8"?>
<!-- Generator: Adobe Illustrator 15.0.2, SVG Export Plug-In . SVG Version: 6.00 Build 0)  -->
<!DOCTYPE svg PUBLIC "-//W3C//DTD SVG 1.1//EN" "http://www.w3.org/Graphics/SVG/1.1/DTD/svg11.dtd">
<svg version="1.1" id="Layer_1" xmlns="http://www.w3.org/2000/svg" xmlns:xlink="http://www.w3.org/1999/xlink" x="0px" y="0px"
	 width="602.668px" height="162px" viewBox="0 0 602.668 162" enable-background="new 0 0 602.668 162" xml:space="preserve">
<line fill="none" stroke="#72BF44" stroke-width="12" stroke-miterlimit="10" x1="-757.565" y1="1204.512" x2="-757.565" y2="1333.871"/>
<g>
	<path fill="none" stroke="#000000" stroke-width="20" stroke-linecap="round" stroke-linejoin="round" d="M-628.197,1535.371
		c0,41.187-33.39,74.582-74.582,74.582c-41.193,0-74.583-33.396-74.583-74.582c0-41.192,33.39-74.582,74.583-74.582
		C-661.587,1460.789-628.197,1494.179-628.197,1535.371z"/>
	<path fill="none" stroke="#000000" stroke-width="20" stroke-linecap="round" stroke-linejoin="round" d="M-775.515,1529.966
		c0,0,65.936,43.547,145.47,0l-1.146,17.075c-31.003,2.005-69.333,15.362-71.588,58.784c-2.256-43.422-40.585-56.779-71.588-58.784
		L-775.515,1529.966z"/>
	<polygon fill="none" points="-723.361,1541.01 -702.779,1576.657 -682.198,1541.01 	"/>
</g>
<rect x="-602.194" y="1480.438" fill="none" width="602.667" height="109.866"/>
<text transform="matrix(1 0 0 1 -602.1943 1579.8369)" font-family="'MyriadPro-Regular'" font-size="140">PlanScape</text>
<g>
	<linearGradient id="SVGID_1_" gradientUnits="userSpaceOnUse" x1="-763.5845" y1="1172.0996" x2="-629.9937" y2="1172.0996">
		<stop  offset="0" style="stop-color:#00A14B"/>
		<stop  offset="1" style="stop-color:#8DC63F"/>
	</linearGradient>
	<path fill="url(#SVGID_1_)" d="M-629.994,1119.934c-25.07,18.875-69.016-4.514-96.21,8.117
		c-37.664,14.762-37.514,48.111-37.362,81.461l0,0c30.778,13.248,60.978,26.246,89.433-2.391
		C-651.765,1187.221-657.3,1135.437-629.994,1119.934"/>
</g>
<rect x="-774.194" y="1234.438" fill="none" width="602.667" height="109.866"/>
<text transform="matrix(1 0 0 1 -774.1943 1333.8369)" fill="#82C341" font-family="'MyriadPro-Regular'" font-size="140">PlanScape</text>
<g>
	<g>
		
			<linearGradient id="SVGID_2_" gradientUnits="userSpaceOnUse" x1="-830.9634" y1="882.5869" x2="-499.9365" y2="882.5869" gradientTransform="matrix(1.0903 -4.098038e-04 -4.098034e-04 1 -7.8846 0.0365)">
			<stop  offset="0" style="stop-color:#00A14B"/>
			<stop  offset="1" style="stop-color:#8DC63F"/>
		</linearGradient>
		<path fill="url(#SVGID_2_)" d="M-553.282,753.566c-67.749,46.795-186.457-11.113-259.938,20.211
			C-914.993,810.396-914.624,893.03-914.245,975.67l0,0c83.141,32.797,164.718,64.972,241.624-6.015
			C-612.167,920.321-627.07,792.009-553.282,753.566"/>
	</g>
	<path fill-rule="evenodd" clip-rule="evenodd" fill="#FFFFFF" d="M-646.736,906.354c-0.16,2.8-1.542,6.519-3.196,9.145
		c-2.896,4.597-5.574,7.211-12.785,6.098c0.063-9.053,0.427-16.675-2.397-21.774c-7.853-14.184-38.135-14.284-47.145-3.484
		c-4.804,5.758-2.437,15.282-3.596,25.259c-38.089-0.29-77.244,0.58-114.667-0.436c-0.49-15.184-0.936-25.632-9.988-30.92
		c-13.209-7.717-38.604-2.614-42.351,11.758c-1.656,6.354,0.738,10.32-0.799,18.291c-7.042-0.442-11.41-6.75-11.986-13.936
		c-0.22-2.752,0.399-7.172,0.399-11.323c0-3.971-0.498-8.067-0.399-11.323c0.296-9.812,5.507-19.603,9.589-25.693
		c3.994-5.96,7.119-10.093,11.187-16.113c2.371-3.509,4.38-7.223,5.993-7.839c2.659-1.017,7.771-0.239,11.586-0.436
		c11.974-0.617,24.086-1.647,35.159-2.178c17.034-0.816,33.045-1.705,47.945-0.436c14.891,1.27,27.311,5.429,38.355,11.759
		c8.271,4.74,14.896,10.974,22.374,16.113c2.54,1.745,5.008,4.369,7.591,5.226c3.386,1.123,7.913,1.097,11.986,1.742
		c8.437,1.338,15.768,2.491,23.573,3.919c9.894,1.811,15.247,3.703,18.378,12.194c0.654,1.771,0.536,4.146,1.199,6.097
		c1.351,3.973,4.373,7.174,4.395,11.759 M-691.884,936.402c-7.905-1.341-12.685-6.706-14.783-12.194
		c-5.327-13.936,4.249-31.683,20.776-29.613c10.806,1.354,21.28,15.132,15.582,29.613c-2.479,6.303-8.443,10.856-15.183,12.63
		 M-859.29,936.402c-10.715-1.868-18.164-11.973-16.381-24.823c1.603-11.558,13.605-19.986,24.771-16.984
		c15.809,4.25,19.312,29.13,5.594,38.759c-2.244,1.575-4.208,2.411-7.591,3.484 M-863.285,852.788
		c-1.709,2.967-3.823,5.526-5.194,8.273c-0.243,0.488-1.74,2.146-0.399,2.613c22.773,0,45.547,0,68.321,0c0-7.984,0-15.968,0-23.952
		c-18.379,0-36.757,0-55.136,0C-858.752,843.318-860.689,848.281-863.285,852.788z M-748.618,844.948
		c-11.098-5.154-26.249-3.936-43.15-3.919c-0.932,6.969-0.134,15.822-0.4,23.517c24.106-0.29,49.276,0.58,72.716-0.436
		C-729.442,858.584-737.375,850.17-748.618,844.948z"/>
</g>
<rect x="-606.096" y="817.404" fill="none" width="659.333" height="130.934"/>
<text transform="matrix(1 0 0 1 -606.0962 926.0332)" font-family="'MyriadPro-Regular'" font-size="153">PlanScape</text>
<path fill-rule="evenodd" clip-rule="evenodd" fill="#3953A4" d="M1408.335,378.076c0.784,2.692,0.724,6.659,0.041,9.687
	c-1.196,5.3-2.848,8.658-10.017,10.016c-2.963-8.554-5.165-15.86-9.529-19.725c-12.138-10.749-40.716-0.734-45.604,12.454
	c-2.607,7.031,2.804,15.219,5.043,25.01c-36.002,12.442-72.619,26.333-108.235,37.869c-5.531-14.149-9.438-23.849-19.737-25.812
	c-15.027-2.865-37.262,10.422-35.996,25.221c0.561,6.543,4.141,9.482,5.354,17.508c-6.786,1.934-13.009-2.554-15.951-9.135
	c-1.126-2.521-2.018-6.894-3.403-10.807c-1.326-3.743-3.163-7.438-4.156-10.54c-2.997-9.348-1.354-20.316,0.461-27.42
	c1.775-6.952,3.342-11.891,5.167-18.924c1.062-4.099,1.716-8.27,3.031-9.39c2.168-1.846,7.246-2.82,10.776-4.278
	c11.081-4.579,22.155-9.594,32.416-13.791c15.783-6.456,30.579-12.639,45.049-16.416c14.46-3.774,27.557-4,40.081-1.72
	c9.379,1.707,17.703,5.372,26.469,7.72c2.978,0.797,6.179,2.447,8.9,2.392c3.566-0.072,7.825-1.608,11.88-2.359
	c8.398-1.555,15.695-2.916,23.528-4.175c9.931-1.596,15.608-1.599,21.396,5.359c1.207,1.452,1.889,3.73,3.165,5.347
	c2.6,3.294,6.516,5.303,8.068,9.617 M1375.809,421.473c-7.899,1.375-14.195-2.087-18.005-6.56
	c-9.675-11.357-6.572-31.283,9.697-34.85c10.638-2.331,25.11,7.16,24.574,22.713c-0.233,6.769-4.335,13.052-10.095,16.974
	 M1218.007,477.358c-10.724,1.816-21.118-5.222-23.728-17.931c-2.348-11.43,6.152-23.382,17.68-24.279
	c16.32-1.271,27.928,21.012,18.212,34.668c-1.59,2.234-3.162,3.677-5.992,5.818 M1186.327,399.875
	c-0.62,3.367-1.758,6.485-2.134,9.532c-0.066,0.542-0.924,2.604,0.495,2.597c21.467-7.603,42.935-15.206,64.402-22.808
	c-2.666-7.526-5.331-15.052-7.996-22.578c-17.325,6.135-34.648,12.271-51.973,18.406
	C1187.438,389.435,1187.27,394.76,1186.327,399.875z M1291.8,354.205c-12.182-1.154-26.058,5.053-41.983,10.71
	c1.448,6.88,5.155,14.96,7.474,22.301c22.626-8.321,46.644-15.903,68.399-24.686C1314.427,360.657,1304.14,355.374,1291.8,354.205z"
	/>
<g>
	<rect x="7.334" y="48.587" fill="none" width="588" height="109.866"/>
	<text transform="matrix(1 0 0 1 7.334 135.9102)" fill="#434345" font-family="'HiraginoSans-W3-83pv-RKSJ-H'" font-size="114">PlanScape</text>
	<g>
		
			<linearGradient id="SVGID_3_" gradientUnits="userSpaceOnUse" x1="85.1274" y1="38.6934" x2="162.3203" y2="38.6934" gradientTransform="matrix(0.9791 -0.2036 0.2036 0.9791 -3.7659 25.675)">
			<stop  offset="0" style="stop-color:#414042"/>
			<stop  offset="1" style="stop-color:#8DC63F"/>
		</linearGradient>
		<path fill="url(#SVGID_3_)" d="M156.895,1c-11.962,13.627-39.575,5.566-53.473,15.91c-19.571,12.782-15.563,31.631-11.554,50.48
			l0,0c18.971,3.874,37.584,7.674,50.313-11.874C152.495,41.628,143.271,12.983,156.895,1"/>
	</g>
	<g>
		<g>
			<path fill="#7AC143" d="M95.681,62.905c3.2-11.978,13.125-21.217,22.2-29.048c9.608-8.291,20.171-15.348,30.368-22.871
				c1.056-0.779-0.574-1.136-1.222-0.658c-10.324,7.616-20.92,14.831-30.714,23.142c-9.274,7.869-19.328,17.514-22.57,29.651
				C93.537,63.891,95.492,63.612,95.681,62.905L95.681,62.905z"/>
		</g>
	</g>
</g>
</svg>
